HIERARCHY
ROOT Hips
{
 OFFSET 0.000000 0.000000 0.000000
 CHANNELS 6 Xposition Yposition Zposition Yrotation Xrotation Zrotation
 JOINT Chest
 {
  OFFSET 0.000000 9.585900 0.002600
  CHANNELS 3 Yrotation Xrotation Zrotation
  JOINT Chest2
  {
   OFFSET 0.000000 9.601200 -0.005300
   CHANNELS 3 Yrotation Xrotation Zrotation
   JOINT Chest3
   {
    OFFSET 0.000000 9.561800 0.000000
    CHANNELS 3 Yrotation Xrotation Zrotation
    JOINT Chest4
    {
     OFFSET 0.000000 9.552100 0.000000
     CHANNELS 3 Yrotation Xrotation Zrotation
     JOINT Neck
     {
      OFFSET 0.000000 14.453000 0.000000
      CHANNELS 3 Yrotation Xrotation Zrotation
      JOINT Head
      {
       OFFSET 0.000000 8.936500 -0.011300
       CHANNELS 3 Yrotation Xrotation Zrotation
       End Site
       {
        OFFSET 0.000000 17.073600 -0.006000
       }
      }
     }
     JOINT RightCollar
     {
      OFFSET -2.921100 9.558500 0.000000
      CHANNELS 3 Yrotation Xrotation Zrotation
      JOINT RightShoulder
      {
       OFFSET -13.519700 0.000000 0.000000
       CHANNELS 3 Yrotation Xrotation Zrotation
       JOINT RightElbow
       {
        OFFSET 0.000000 -29.696600 0.000000
        CHANNELS 3 Yrotation Xrotation Zrotation
        JOINT RightWrist
        {
         OFFSET 0.000000 -24.004700 0.000000
         CHANNELS 3 Yrotation Xrotation Zrotation
         End Site
         {
          OFFSET 0.000000 -17.728500 0.000000
         }
        }
       }
      }
     }
     JOINT LeftCollar
     {
      OFFSET 2.921100 9.558500 0.000000
      CHANNELS 3 Yrotation Xrotation Zrotation
      JOINT LeftShoulder
      {
       OFFSET 13.519700 0.000000 0.000000
       CHANNELS 3 Yrotation Xrotation Zrotation
       JOINT LeftElbow
       {
        OFFSET 0.000000 -29.696600 0.000000
        CHANNELS 3 Yrotation Xrotation Zrotation
        JOINT LeftWrist
        {
         OFFSET 0.000000 -24.004700 0.000000
         CHANNELS 3 Yrotation Xrotation Zrotation
         End Site
         {
          OFFSET 0.000000 -17.728500 0.000000
         }
        }
       }
      }
     }
    }
   }
  }
 }
 JOINT RightHip
 {
  OFFSET -7.771700 -0.012900 -0.001300
  CHANNELS 3 Yrotation Xrotation Zrotation
  JOINT RightKnee
  {
   OFFSET 0.000000 -40.869800 0.001200
   CHANNELS 3 Yrotation Xrotation Zrotation
   JOINT RightAnkle
   {
    OFFSET 0.000000 -39.717900 0.002100
    CHANNELS 3 Yrotation Xrotation Zrotation
    JOINT RightToe
    {
     OFFSET 0.000000 -4.965400 11.033500
     CHANNELS 3 Yrotation Xrotation Zrotation
     End Site
     {
      OFFSET 0.000000 -1.423100 5.872300
     }
    }
   }
  }
 }
 JOINT LeftHip
 {
  OFFSET 7.771700 -0.012900 -0.001300
  CHANNELS 3 Yrotation Xrotation Zrotation
  JOINT LeftKnee
  {
   OFFSET 0.000000 -40.869800 0.001200
   CHANNELS 3 Yrotation Xrotation Zrotation
   JOINT LeftAnkle
   {
    OFFSET 0.000000 -39.717900 0.002100
    CHANNELS 3 Yrotation Xrotation Zrotation
    JOINT LeftToe
    {
     OFFSET 0.000000 -4.965400 11.033500
     CHANNELS 3 Yrotation Xrotation Zrotation
     End Site
     {
      OFFSET 0.000000 -1.423100 5.872300
     }
    }
   }
  }
 }
}
MOTION
Frames: 5
Frame Time: 0.008333
-0.989347 55.158664 -21.602980 178.149415 -15.662636 -1.587379 0.149583 15.911627 1.000060 0.021857 1.600975 0.113027 0.042478 2.653017 0.205387 0.337245 14.256729 1.128879 1.089118 17.020909 -1.545888 1.499991 -7.971101 -1.878761 0.197727 0.620876 2.278799 4.857796 -2.863145 -10.509995 -76.084502 -78.573206 106.758999 -12.267256 -21.671567 -0.122037 -5.512841 -0.798387 1.055644 1.014539 -11.186299 7.654195 62.503688 -57.090588 -104.288729 5.924563 -6.064015 -0.432180 0.711155 -59.442502 13.434552 -123.582891 88.940288 -127.569988 -11.516601 -22.919077 14.474933 0.046245 -0.037056 -0.133905 10.350299 -56.222298 -5.240497 114.263092 76.763458 112.848511 -6.272782 -23.829413 0.043237 0.020992 0.211844 0.035874
-0.987477 55.160922 -21.603075 178.149144 -15.671602 -1.581861 0.148596 15.905473 1.001051 0.022854 1.586920 0.120500 0.041085 2.676186 0.195251 0.334721 14.254726 1.129772 1.095344 16.853336 -1.554696 1.505456 -8.067084 -1.888967 0.199583 0.614455 2.251898 4.808789 -2.829421 -10.443261 -76.228893 -78.584041 106.871481 -12.275292 -21.670116 -0.084569 -5.494812 -0.778657 1.085675 1.050402 -11.092263 7.528970 62.369860 -57.099404 -104.102792 5.903708 -6.034905 -0.341344 0.708900 -59.430573 13.441765 -123.236980 88.936497 -127.230110 -11.557679 -22.899737 14.506239 0.045689 -0.045259 -0.120614 10.374225 -56.207398 -5.247492 114.237384 76.770627 112.821342 -6.281598 -23.831147 0.046610 0.018351 0.216518 0.042091
-0.988096 55.163072 -21.604744 178.150055 -15.683473 -1.565016 0.142767 15.909396 0.986556 0.022627 1.586322 0.120622 0.040670 2.667038 0.198391 0.332941 14.262409 1.128205 1.101740 16.683175 -1.560597 1.510847 -8.158328 -1.897550 0.200184 0.606258 2.222688 4.727291 -2.792723 -10.343729 -76.332780 -78.633702 106.994466 -12.285022 -21.677277 -0.067966 -5.477212 -0.764637 1.118403 1.086969 -10.995710 7.403392 62.247174 -57.103017 -103.922138 5.878543 -5.991734 -0.247006 0.710783 -59.414413 13.438784 -123.035945 88.923963 -127.043542 -11.622507 -22.881645 14.541495 0.033291 -0.050301 -0.098047 10.409995 -56.185507 -5.271163 114.210469 76.774264 112.779523 -6.280840 -23.833941 0.063415 -0.002398 0.218970 0.035060
-0.987046 55.165008 -21.607304 178.145646 -15.695257 -1.561061 0.145961 15.913129 0.987483 0.022390 1.585464 0.120631 0.040142 2.631301 0.210384 0.326722 14.279598 1.120818 1.108914 16.563786 -1.568670 1.515443 -8.280686 -1.905762 0.201158 0.607960 2.186626 4.662893 -2.765391 -10.268407 -76.328624 -78.671015 107.033273 -12.303861 -21.866634 -0.182254 -5.459787 -0.740861 1.148903 1.124789 -10.899370 7.280206 62.139724 -57.102586 -103.749584 5.854068 -5.936946 -0.152256 0.712443 -59.397276 13.431261 -123.101379 88.928723 -127.126140 -11.586674 -22.875103 14.556741 0.012778 -0.059389 -0.086888 10.425008 -56.167558 -5.271360 114.198723 76.781092 112.767894 -6.285028 -23.840490 0.061338 0.001762 0.222308 0.035771
-0.987487 55.166454 -21.610374 178.139819 -15.703860 -1.552968 0.149928 15.904214 0.988727 0.021907 1.565267 0.126997 0.039485 2.646113 0.202898 0.329854 14.233379 1.133140 1.105319 16.487386 -1.583005 1.518425 -8.400018 -1.911384 0.186909 0.650199 2.146449 4.613511 -2.748201 -10.215565 -76.626359 -78.669754 107.266106 -12.332528 -21.929070 -0.172735 -5.452309 -0.679953 1.169800 1.162185 -10.808711 7.161656 62.045741 -57.102074 -103.589162 5.834569 -5.875639 -0.058551 0.697594 -59.383437 13.468512 -122.048464 88.900533 -126.074816 -11.762511 -22.846120 14.607919 0.005605 -0.054430 -0.071684 10.441121 -56.155539 -5.279328 114.197584 76.780372 112.764259 -6.285578 -23.839810 0.060005 0.005411 0.215194 0.026937
